<svg width="43" height="41" viewBox="0 0 43 41" fill="none" xmlns="http://www.w3.org/2000/svg">
<path d="M20 1.99998C20 2.66665 20.6667 3.33331 21.4667 3.33331C22.1333 3.33331 22.4 2.66665 22 1.99998C21.6 1.19998 20.9333 0.666646 20.5333 0.666646C20.2667 0.666646 20 1.19998 20 1.99998Z" fill="#FF0604"/>
<path d="M29.9999 5.59999C17.4666 6.39999 17.3333 6.53333 17.3333 14.4C17.3333 18.1333 17.8666 22 18.3999 22.8C18.9333 23.6 24.5333 24.8 31.0666 25.3333L42.6666 26.2667V15.4667C42.6666 5.06666 42.5333 4.66666 39.7333 4.93333C37.9999 5.06666 33.7333 5.33333 29.9999 5.59999ZM23.9999 10C21.4666 11.7333 19.9999 11.7333 19.9999 10C19.9999 9.2 21.3333 8.66666 23.0666 8.66666C25.4666 8.66666 25.5999 8.93333 23.9999 10ZM35.9999 11.4667C35.9999 10 36.3999 10 37.9999 11.3333C39.0666 12.2667 39.9999 14.1333 39.9999 15.4667C39.9999 17.3333 39.0666 18 35.9999 18C31.8666 18 31.0666 16.5333 32.7999 12C33.4666 10.2667 33.8666 10.1333 34.7999 11.6C35.7333 13.0667 35.9999 13.0667 35.9999 11.4667Z" fill="#FF0604"/>
<path d="M14.7999 21.7333C14.6666 24.5333 15.3333 26.4 16.6666 26.8C17.7333 27.3333 18.6666 29.0667 18.6666 30.8C18.6666 34.2667 19.3333 34.6667 21.7333 32.6667C22.6666 31.8667 24.5333 30.4 25.9999 29.3333C28.5333 27.4667 28.3999 27.4667 23.8666 27.3333C18.5333 27.3333 16.5333 25.7333 15.5999 20.6667C15.0666 17.8667 15.0666 18 14.7999 21.7333Z" fill="#FF0604"/>
<path d="M3.46667 27.4667C1.6 28.9333 0 31.0667 0 32C0 34.4 6.8 38 11.3333 38C13.2 38 14.6667 38.5333 14.6667 39.3333C14.6667 41.4667 16.9333 40.8 17.8667 38.4C18.9333 35.7333 16.2667 33.7333 12.6667 34.8C10.6667 35.4667 10.4 35.2 11.4667 34C12.6667 32.8 12.4 31.7333 10.5333 29.8667C9.06667 28.4 8.26667 26.6667 8.66667 26C10.1333 23.7333 7.2 24.5333 3.46667 27.4667Z" fill="#FF0604"/>
<path d="M38.9333 31.3333C39.8667 32.8 41.0667 34 41.6 34C42.2667 34 42.6667 32.8 42.6667 31.3333C42.6667 29.6 41.7333 28.6667 40 28.6667C37.6 28.6667 37.4667 28.9333 38.9333 31.3333Z" fill="#FF0604"/>
</svg>
